# xmcd
#
# Track frame offsets: 
#        150
#        18843
#        39727
#        56279
#        72304
#        89073
#        109215
#        129297
#        145052
#        163312
#        183524
#        205424
#        224942
#        241729
#        265194
#        283145
#        304115
#        321243
#        337519
#
# Disc length: 4529 seconds
#
# Revision: 0
# Processed by: cddbd v1.5.2PL0 Copyright (c) Steve Scherf et al.
# Submitted via: ExactAudioCopy v0.99pb5
#
DISCID=2211af13
DTITLE=Various Artist - Discoteca Manelelor 2008
DYEAR=2008
DGENRE=Manele
TTITLE0=Morgana si Elis - Imagini cu noi doi
TTITLE1=Nicolae Guta si Adriano - Nu mai vreau sa stiu
TTITLE2=Luci Anne - Mi-e gandul doar la tine
TTITLE3=Caludia, Cristi Dules si Danezu - Misca-te bine
TTITLE4=Nicolae Guta si Kristiyana - Eu te astept de ani de zile
TTITLE5=Florinel si Ioana - Cred ca toata lumea stie
TTITLE6=Florin Peste si Diana - Ai curaj sa ma privesti
TTITLE7=Denisa - Un milion de griji
TTITLE8=Angelly - De dragoste nu poti fugi
TTITLE9=Nicolae Guta, Oana si Mr. Juve - Ma urmareste umbra ta
TTITLE10=Florinel si Ioana - De-as putea sa cumpar anii
TTITLE11=Nicolae Guta si Bebe Mondialu - Sapte minuni sunt pe lume
TTITLE12=Liviu Pustiu - Cine a fost la rau si bine
TTITLE13=Nicolae Guta - Pentru tine m-am certat cu prietenii mei
TTITLE14=Zaku, Alex si Alina - Danseaza la valoare
TTITLE15=Denisa - Nici o viata
TTITLE16=Florin Salam si Kristiyana - Jura-te, jura-te
TTITLE17=Daniela - Orice ar fi
TTITLE18=Publicitate
EXTD=
EXTT0=
EXTT1=
EXTT2=
EXTT3=
EXTT4=
EXTT5=
EXTT6=
EXTT7=
EXTT8=
EXTT9=
EXTT10=
EXTT11=
EXTT12=
EXTT13=
EXTT14=
EXTT15=
EXTT16=
EXTT17=
EXTT18=
PLAYORDER=
